#!OML:ASF X:\für Bonn\!DataBase\2005_08_12_Daniel\c3d\Daniel.ASF
:FULLY-SPECIFIED
:DEGREES
62
root 12.3373 15.5246 13.3651 891.929 -49.6971 -903.027
lowerback 38.783 6.18657 -4.72526
upperback 9.71718 3.00754 -4.51211
thorax -8.08209 0.521284 -3.41732
lowerneck -7.66549 -1.98684 -5.76009
upperneck -1.68493 -2.29041 1.21462
head 0.850772 -1.15474 1.28449
rclavicle -5.1684e-014 1.43125e-014
rhumerus -34.1554 6.83028 -93.9617
rradius 64.3224
rwrist 4.74167
rhand -30.825 15.4096
rfingers 7.12502
rthumb -4.11416 -14.5304
lclavicle -5.1684e-014 1.43125e-014
lhumerus -32.8598 28.3379 73.252
lradius 61.7754
lwrist -10.9483
lhand -23.9026 -1.39319
lfingers 7.12502
lthumb 2.57143 28.5711
rfemur 22.1593 -3.72951 21.1738
rtibia 46.3114
rfoot -17.2992 -2.64225
rtoes -10.2731
lfemur -40.2521 2.31873 -23.8479
ltibia 59.3622
lfoot -10.1632 -9.85299
ltoes -7.21425
63
root 12.2128 15.5455 13.2597 892.148 -49.8546 -903.105
lowerback 38.8456 6.23082 -4.99726
upperback 9.69612 2.94262 -4.53861
thorax -8.13373 0.490035 -3.28368
lowerneck -7.71141 -1.9912 -5.6921
upperneck -1.65233 -2.29835 1.22992
head 0.868521 -1.15891 1.27702
rclavicle 2.78299e-014 -3.65764e-014
rhumerus -34.3404 7.00846 -93.9976
rradius 64.1989
rwrist 4.5814
rhand -30.849 15.2163
rfingers 7.12502
rthumb -4.13731 -14.7233
lclavicle 2.78299e-014 -3.65764e-014
lhumerus -32.5428 28.301 73.2692
lradius 61.8256
lwrist -10.8955
lhand -23.7596 -1.27843
lfingers 7.12502
lthumb 2.7095 28.6841
rfemur 22.253 -3.83019 21.1082
rtibia 46.3952
rfoot -15.6722 -3.17927
rtoes -10.0447
lfemur -40.0684 2.30284 -23.9568
ltibia 59.8601
lfoot -10.6965 -10.0595
ltoes -6.21146
64
root 12.0876 15.5688 13.1555 892.335 -49.9338 -903.107
lowerback 38.8552 6.28523 -5.26007
upperback 9.66573 2.91171 -4.50954
thorax -8.17878 0.476426 -3.10746
lowerneck -7.80822 -2.01624 -5.81663
upperneck -1.59772 -2.31564 1.32137
head 0.907032 -1.16648 1.32705
rclavicle -1.74931e-014 -2.22639e-014
rhumerus -34.4949 7.25028 -93.9772
rradius 63.9719
rwrist 4.36975
rhand -30.8997 15.1347
rfingers 7.12502
rthumb -4.18633 -14.8039
lclavicle -1.74931e-014 -2.22639e-014
lhumerus -32.295 28.3089 73.3805
lradius 61.9274
lwrist -10.9023
lhand -23.8198 -1.12999
lfingers 7.12502
lthumb 2.65142 28.8333
rfemur 22.2164 -3.82746 21.1136
rtibia 46.6412
rfoot -13.9564 -3.70822
rtoes -9.31169
lfemur -39.9003 2.32308 -23.9953
ltibia 60.3242
lfoot -11.2404 -10.2595
ltoes -4.92417
65
root 11.9656 15.59 13.0569 892.465 -50.0109 -903.062
lowerback 38.9019 6.31255 -5.39068
upperback 9.65145 2.88598 -4.52007
thorax -8.21298 0.464303 -3.04401
lowerneck -7.86616 -2.03962 -5.87709
upperneck -1.55251 -2.33779 1.41779
head 0.935216 -1.17612 1.3676
rclavicle 5.64548e-014 -9.70069e-014
rhumerus -34.6302 7.36095 -93.965
rradius 63.7497
rwrist 4.15943
rhand -30.9401 15.0382
rfingers 7.12502
rthumb -4.22532 -14.8996
lclavicle 5.64548e-014 -9.70069e-014
lhumerus -31.9015 28.2238 73.5217
lradius 61.9707
lwrist -10.8516
lhand -23.8747 -0.991992
lfingers 7.12502
lthumb 2.59835 28.9719
rfemur 22.0749 -3.95922 21.0186
rtibia 47.0743
rfoot -12.2037 -4.03956
rtoes -9.16771
lfemur -39.6894 2.34171 -24.0088
ltibia 60.7416
lfoot -11.7963 -10.4259
ltoes -4.01522
66
root 11.8434 15.6123 12.9607 892.641 -50.0408 -903.083
lowerback 38.9389 6.33186 -5.55465
upperback 9.63311 2.83444 -4.54823
thorax -8.24914 0.44002 -2.9718
lowerneck -7.95923 -2.04634 -5.96934
upperneck -1.49082 -2.33287 1.5096
head 0.974239 -1.17244 1.41311
rclavicle -6.59965e-014 -3.33958e-014
rhumerus -34.7594 7.54462 -93.9388
rradius 63.4685
rwrist 3.98584
rhand -30.9847 14.9954
rfingers 7.12502
rthumb -4.2684 -14.9416
lclavicle -6.59965e-014 -3.33958e-014
lhumerus -31.5943 28.1283 73.6533
lradius 62.0714
lwrist -10.7205
lhand -24.1522 -0.80143
lfingers 7.12502
lthumb 2.33038 29.1656
rfemur 21.8467 -4.08263 20.8048
rtibia 47.6089
rfoot -10.4511 -4.31147
rtoes -8.95442
lfemur -39.4689 2.35881 -24.0609
ltibia 61.1351
lfoot -12.3944 -10.5251
ltoes -3.46045
67
root 11.7235 15.6334 12.8664 892.861 -50.0715 -903.153
lowerback 38.944 6.34595 -5.72993
upperback 9.61561 2.77466 -4.58968
thorax -8.27366 0.412614 -2.90361
lowerneck -7.9188 -2.04198 -5.96677
upperneck -1.51788 -2.33028 1.51483
head 0.958558 -1.17082 1.41462
rclavicle 3.65764e-014 -1.11319e-014
rhumerus -34.8846 7.69163 -93.9379
rradius 63.1709
rwrist 3.83089
rhand -30.9612 14.9302
rfingers 7.12502
rthumb -4.24565 -15.0072
lclavicle 3.65764e-014 -1.11319e-014
lhumerus -31.3371 28.0382 73.7895
lradius 62.2309
lwrist -10.5471
lhand -24.4209 -0.672489
lfingers 7.12502
lthumb 2.07086 29.2972
rfemur 21.5161 -4.23051 20.5249
rtibia 48.282
rfoot -8.76022 -4.54438
rtoes -8.47158
lfemur -39.2372 2.38997 -24.1571
ltibia 61.4914
lfoot -12.9796 -10.6362
ltoes -3.07842
68
root 11.6045 15.6556 12.7747 892.988 -50.0282 -903.154
lowerback 38.9757 6.37658 -5.85322
upperback 9.58673 2.75606 -4.60769
thorax -8.31822 0.404534 -2.85468
lowerneck -7.80459 -2.03762 -6.05983
upperneck -1.53168 -2.32302 1.58624
head 0.93721 -1.16511 1.45487
rclavicle 0 3.65764e-014
rhumerus -35.047 7.81575 -93.8889
rradius 62.867
rwrist 3.65812
rhand -30.8786 14.9859
rfingers 7.12502
rthumb -4.16596 -14.9531
lclavicle 0 3.65764e-014
lhumerus -31.1627 27.8808 73.9374
lradius 62.4558
lwrist -10.3368
lhand -24.8034 -0.657068
lfingers 7.12502
lthumb 1.70141 29.3159
rfemur 21.1594 -4.34704 20.2473
rtibia 49.034
rfoot -7.21877 -4.7539
rtoes -7.9999
lfemur -38.9496 2.42673 -24.1738
ltibia 61.8294
lfoot -13.6125 -10.7485
ltoes -2.78769
69
root 11.4876 15.6761 12.6865 893.068 -49.9718 -903.119
lowerback 39.0009 6.37372 -5.93384
upperback 9.60246 2.70764 -4.62558
thorax -8.31066 0.378626 -2.81354
lowerneck -7.82987 -2.03562 -6.22079
upperneck -1.5107 -2.30562 1.69187
head 0.952445 -1.15443 1.51796
rclavicle -9.70069e-014 7.15625e-014
rhumerus -35.1012 7.99671 -93.8492
rradius 62.5683
rwrist 3.43771
rhand -30.7561 14.9618
rfingers 7.12502
rthumb -4.04763 -14.9795
lclavicle -9.70069e-014 7.15625e-014
lhumerus -30.8577 27.7969 74.1114
lradius 62.601
lwrist -10.171
lhand -25.2311 -0.63716
lfingers 7.12502
lthumb 1.28839 29.3387
rfemur 20.7144 -4.41816 20.0092
rtibia 49.9254
rfoot -5.82533 -4.95963
rtoes -7.19485
lfemur -38.6514 2.50405 -24.1949
ltibia 62.1421
lfoot -14.2283 -10.793
ltoes -3.06318
